# xmcd CD database file
#
# Track frame offsets:
#	150
#	18597
#	40035
#	61575
#	85765
#	103890
#	128047
#	150627
#	172120
#	194995
#	219202
#	236632
#
# Disc length: 3439 seconds
#
# Revision: 2
# Processed by: cddbd v1.4PL0 Copyright (c) Steve Scherf et al.
# Submitted via: CDex 1.50Beta7
#
DISCID=9f0d6d0c
DTITLE=Zouk Machine - L'essentiel
DYEAR=1998
DGENRE=Zouk
TTITLE0=Maldon (remix)
TTITLE1=Sove lamnou
TTITLE2=Pisime zouke
TTITLE3=Se sa an vle
TTITLE4=Sa ke cho
TTITLE5=Mannde la
TTITLE6=Kou pa adan
TTITLE7=Pa mannyey
TTITLE8=Yes man
TTITLE9=La vie se fa
TTITLE10=An bi
TTITLE11=Soulaje ke aw
EXTD=YEAR: 1998
EXTT0=
EXTT1=
EXTT2=
EXTT3=
EXTT4=
EXTT5=
EXTT6=
EXTT7=
EXTT8=
EXTT9=
EXTT10=
EXTT11=
PLAYORDER=
